# xmcd
#
# Track frame offsets:
#	150
#	12530
#	29982
#	44446
#	62476
#	76618
#	93188
#	110547
#	126332
#	143012
#	159165
#	173398
#
# Disc length: 2374
#
# Revision: 1
# Processed by: cddbd v1.5.1PL0 Copyright (c) Steve Scherf et al.
# Submitted via: VisiTrax 2.9.5.180 - For more info visit www.synapsa.com
# Normalized: r0:DSETVAR1
#
DISCID=9009440c
DTITLE=Various Artist - CDX 202 December 1998
DYEAR=1998
DGENRE=
TTITLE0=Perfect Stranger - A little bit more of your love
TTITLE1=Ty Herndon - Hands of a working man
TTITLE2=Kenny Chesney - How forever feels
TTITLE3=Mark Chesnutt - I don't want to miss a thing
TTITLE4=Lee Ann Womack - I'll think of a reason later
TTITLE5=Sara Evans/Vince Gill - No place that far
TTITLE6=Claudia Church - What's the matter with you baby
TTITLE7=Tracy Byrd - When mama ain't happy
TTITLE8=Dixie Chicks - You were mine
TTITLE9=Andy Griggs - You won't ever be lonely
TTITLE10=Dean Chance - Can't hardly wait to hold you
TTITLE11=Kenny Chesney - PSA
EXTD=
EXTT0=
EXTT1=
EXTT2=
EXTT3=
EXTT4=
EXTT5=
EXTT6=
EXTT7=
EXTT8=
EXTT9=
EXTT10=
EXTT11=
PLAYORDER=
